<svg width="55" height="55" viewBox="0 0 55 55" fill="none" xmlns="http://www.w3.org/2000/svg">
<circle cx="27.5" cy="27.5" r="27.5" fill="#2536D9"/>
<path fill-rule="evenodd" clip-rule="evenodd" d="M37.8595 37.6462C34.8919 38.1252 34.4323 38.5065 31.2169 37.5973C31.4257 38.7662 30.7962 40.307 29.33 40.7505C28.2594 41.0875 25.8194 40.7213 24.6354 40.2119C21.6902 38.9167 23.7637 36.5973 25.3855 34.2811C28.1485 30.3352 30.2626 26.7658 33.0086 22.9357C35.6795 24.8059 37.3165 25.9522 39.5997 27.5509L39.2093 28.1085L39.9416 28.6212L40.3621 28.0208C40.6206 28.2018 40.9221 28.4129 41.2237 28.6241C41.6011 27.9934 42.3009 27.269 42.459 26.6765C42.2005 26.4955 41.942 26.3145 41.6835 26.1336L42.1641 25.4473L41.4748 24.9647L40.9943 25.6509C38.668 24.0221 36.9879 22.8456 34.317 20.9755C34.7375 20.375 35.1279 19.8174 35.5484 19.2169C36.3356 19.1929 36.8996 19.396 37.5445 19.2084C42.4679 17.8618 41.021 10.3927 35.9019 10.6435C33.6994 10.7632 31.703 12.8809 31.9012 15.2569C31.9585 16.0002 32.3893 16.3018 32.5158 17.2214C32.0823 17.7488 31.701 18.5684 31.2584 18.8338C28.6736 17.0239 27.0366 15.8777 24.7965 14.3091L25.2771 13.6229L24.5447 13.1101L24.0642 13.7964C23.7626 13.5852 23.4611 13.3741 23.1595 13.1629C22.6268 13.5569 22.2155 14.4195 21.7519 14.9898C22.0966 15.2311 22.4412 15.4724 22.7427 15.6836L22.3523 16.2412L23.0847 16.7539L23.4751 16.1964C25.7152 17.7649 27.3522 18.9111 29.937 20.721C27.217 24.6972 24.5559 27.9475 21.883 31.7648C21.0721 32.9228 20.0301 34.6861 19.1449 35.2168C16.8887 36.5135 14.6085 31.9765 14.5278 30.2581C14.4783 29.1368 14.9628 28.2615 15.9041 27.834C16.2136 27.6671 16.8546 27.6685 16.7423 27.4621C14.9045 24.769 15.0325 24.2194 14.5106 21.2972C11.3653 23.3136 10.2541 24.9005 10.0958 27.6022C10.2681 27.7228 10.9392 27.6814 11.4091 28.2022C11.2533 32.1839 12.4944 35.5459 15.0868 39.0869C15.5397 39.7237 16.3895 40.894 16.7954 41.6896C16.9207 41.9691 17.1843 42.6011 17.1413 42.571C17.1843 42.6011 18.0016 42.5342 18.0447 42.5643C19.5722 42.6751 20.7823 43.3307 22.5082 43.7082C25.5383 44.4236 28.2355 44.3307 30.9916 43.512C31.6366 43.3244 32.4017 42.9652 32.6341 43.0001C33.3142 43.2207 33.3977 44.1101 33.664 43.9131C36.0024 42.8657 37.0274 41.2184 37.8595 37.6462ZM35.0356 16.5568C34.0879 15.8931 33.853 14.5781 34.5137 13.6345C35.1745 12.6909 36.4905 12.4619 37.4382 13.1255C38.386 13.7891 38.6208 15.1041 37.9601 16.0477C37.2994 16.9913 35.9833 17.2204 35.0356 16.5568Z" fill="white"/>
</svg>
