<svg width="253" height="55" viewBox="0 0 253 55" fill="none" xmlns="http://www.w3.org/2000/svg">
<path d="M79.5982 11.4L75.4762 24H72.3442L69.5722 15.468L66.7102 24H63.5962L59.4562 11.4H62.4802L65.3242 20.256L68.2942 11.4H70.9942L73.8742 20.328L76.8082 11.4H79.5982ZM90.6933 19.194C90.6933 19.23 90.6753 19.482 90.6393 19.95H83.3133C83.4453 20.55 83.7573 21.024 84.2493 21.372C84.7413 21.72 85.3533 21.894 86.0853 21.894C86.5893 21.894 87.0333 21.822 87.4173 21.678C87.8133 21.522 88.1793 21.282 88.5153 20.958L90.0093 22.578C89.0973 23.622 87.7653 24.144 86.0133 24.144C84.9213 24.144 83.9553 23.934 83.1153 23.514C82.2753 23.082 81.6273 22.488 81.1713 21.732C80.7153 20.976 80.4873 20.118 80.4873 19.158C80.4873 18.21 80.7093 17.358 81.1533 16.602C81.6093 15.834 82.2273 15.24 83.0073 14.82C83.7993 14.388 84.6813 14.172 85.6533 14.172C86.6013 14.172 87.4593 14.376 88.2273 14.784C88.9953 15.192 89.5953 15.78 90.0273 16.548C90.4713 17.304 90.6933 18.186 90.6933 19.194ZM85.6713 16.296C85.0353 16.296 84.5013 16.476 84.0693 16.836C83.6373 17.196 83.3733 17.688 83.2773 18.312H88.0473C87.9513 17.7 87.6873 17.214 87.2553 16.854C86.8233 16.482 86.2953 16.296 85.6713 16.296ZM96.7208 24.144C95.9168 24.144 95.1308 24.048 94.3628 23.856C93.5948 23.652 92.9828 23.4 92.5268 23.1L93.4628 21.084C93.8948 21.36 94.4168 21.588 95.0288 21.768C95.6408 21.936 96.2408 22.02 96.8288 22.02C98.0168 22.02 98.6108 21.726 98.6108 21.138C98.6108 20.862 98.4488 20.664 98.1248 20.544C97.8008 20.424 97.3028 20.322 96.6308 20.238C95.8388 20.118 95.1848 19.98 94.6688 19.824C94.1528 19.668 93.7028 19.392 93.3188 18.996C92.9468 18.6 92.7608 18.036 92.7608 17.304C92.7608 16.692 92.9348 16.152 93.2828 15.684C93.6428 15.204 94.1588 14.832 94.8308 14.568C95.5148 14.304 96.3188 14.172 97.2428 14.172C97.9268 14.172 98.6048 14.25 99.2768 14.406C99.9608 14.55 100.525 14.754 100.969 15.018L100.033 17.016C99.1808 16.536 98.2508 16.296 97.2428 16.296C96.6428 16.296 96.1928 16.38 95.8928 16.548C95.5928 16.716 95.4428 16.932 95.4428 17.196C95.4428 17.496 95.6048 17.706 95.9288 17.826C96.2528 17.946 96.7688 18.06 97.4768 18.168C98.2688 18.3 98.9168 18.444 99.4208 18.6C99.9248 18.744 100.363 19.014 100.735 19.41C101.107 19.806 101.293 20.358 101.293 21.066C101.293 21.666 101.113 22.2 100.753 22.668C100.393 23.136 99.8648 23.502 99.1688 23.766C98.4848 24.018 97.6688 24.144 96.7208 24.144ZM110.171 23.532C109.895 23.736 109.553 23.892 109.145 24C108.749 24.096 108.329 24.144 107.885 24.144C106.733 24.144 105.839 23.85 105.203 23.262C104.579 22.674 104.267 21.81 104.267 20.67V16.692H102.773V14.532H104.267V12.174H107.075V14.532H109.487V16.692H107.075V20.634C107.075 21.042 107.177 21.36 107.381 21.588C107.597 21.804 107.897 21.912 108.281 21.912C108.725 21.912 109.103 21.792 109.415 21.552L110.171 23.532ZM115.906 24.144C115.102 24.144 114.316 24.048 113.548 23.856C112.78 23.652 112.168 23.4 111.712 23.1L112.648 21.084C113.08 21.36 113.602 21.588 114.214 21.768C114.826 21.936 115.426 22.02 116.014 22.02C117.202 22.02 117.796 21.726 117.796 21.138C117.796 20.862 117.634 20.664 117.31 20.544C116.986 20.424 116.488 20.322 115.816 20.238C115.024 20.118 114.37 19.98 113.854 19.824C113.338 19.668 112.888 19.392 112.504 18.996C112.132 18.6 111.946 18.036 111.946 17.304C111.946 16.692 112.12 16.152 112.468 15.684C112.828 15.204 113.344 14.832 114.016 14.568C114.7 14.304 115.504 14.172 116.428 14.172C117.112 14.172 117.79 14.25 118.462 14.406C119.146 14.55 119.71 14.754 120.154 15.018L119.218 17.016C118.366 16.536 117.436 16.296 116.428 16.296C115.828 16.296 115.378 16.38 115.078 16.548C114.778 16.716 114.628 16.932 114.628 17.196C114.628 17.496 114.79 17.706 115.114 17.826C115.438 17.946 115.954 18.06 116.662 18.168C117.454 18.3 118.102 18.444 118.606 18.6C119.11 18.744 119.548 19.014 119.92 19.41C120.292 19.806 120.478 20.358 120.478 21.066C120.478 21.666 120.298 22.2 119.938 22.668C119.578 23.136 119.05 23.502 118.354 23.766C117.67 24.018 116.854 24.144 115.906 24.144ZM123.11 14.316H125.918V24H123.11V14.316ZM124.514 12.966C123.998 12.966 123.578 12.816 123.254 12.516C122.93 12.216 122.768 11.844 122.768 11.4C122.768 10.956 122.93 10.584 123.254 10.284C123.578 9.984 123.998 9.834 124.514 9.834C125.03 9.834 125.45 9.978 125.774 10.266C126.098 10.554 126.26 10.914 126.26 11.346C126.26 11.814 126.098 12.204 125.774 12.516C125.45 12.816 125.03 12.966 124.514 12.966ZM139.288 10.644V24H136.606V22.884C135.91 23.724 134.902 24.144 133.582 24.144C132.67 24.144 131.842 23.94 131.098 23.532C130.366 23.124 129.79 22.542 129.37 21.786C128.95 21.03 128.74 20.154 128.74 19.158C128.74 18.162 128.95 17.286 129.37 16.53C129.79 15.774 130.366 15.192 131.098 14.784C131.842 14.376 132.67 14.172 133.582 14.172C134.818 14.172 135.784 14.562 136.48 15.342V10.644H139.288ZM134.068 21.84C134.776 21.84 135.364 21.6 135.832 21.12C136.3 20.628 136.534 19.974 136.534 19.158C136.534 18.342 136.3 17.694 135.832 17.214C135.364 16.722 134.776 16.476 134.068 16.476C133.348 16.476 132.754 16.722 132.286 17.214C131.818 17.694 131.584 18.342 131.584 19.158C131.584 19.974 131.818 20.628 132.286 21.12C132.754 21.6 133.348 21.84 134.068 21.84ZM152.273 19.194C152.273 19.23 152.255 19.482 152.219 19.95H144.893C145.025 20.55 145.337 21.024 145.829 21.372C146.321 21.72 146.933 21.894 147.665 21.894C148.169 21.894 148.613 21.822 148.997 21.678C149.393 21.522 149.759 21.282 150.095 20.958L151.589 22.578C150.677 23.622 149.345 24.144 147.593 24.144C146.501 24.144 145.535 23.934 144.695 23.514C143.855 23.082 143.207 22.488 142.751 21.732C142.295 20.976 142.067 20.118 142.067 19.158C142.067 18.21 142.289 17.358 142.733 16.602C143.189 15.834 143.807 15.24 144.587 14.82C145.379 14.388 146.261 14.172 147.233 14.172C148.181 14.172 149.039 14.376 149.807 14.784C150.575 15.192 151.175 15.78 151.607 16.548C152.051 17.304 152.273 18.186 152.273 19.194ZM147.251 16.296C146.615 16.296 146.081 16.476 145.649 16.836C145.217 17.196 144.953 17.688 144.857 18.312H149.627C149.531 17.7 149.267 17.214 148.835 16.854C148.403 16.482 147.875 16.296 147.251 16.296ZM167.268 24.216C165.984 24.216 164.82 23.94 163.776 23.388C162.744 22.824 161.928 22.05 161.328 21.066C160.74 20.07 160.446 18.948 160.446 17.7C160.446 16.452 160.74 15.336 161.328 14.352C161.928 13.356 162.744 12.582 163.776 12.03C164.82 11.466 165.99 11.184 167.286 11.184C168.378 11.184 169.362 11.376 170.238 11.76C171.126 12.144 171.87 12.696 172.47 13.416L170.598 15.144C169.746 14.16 168.69 13.668 167.43 13.668C166.65 13.668 165.954 13.842 165.342 14.19C164.73 14.526 164.25 15 163.902 15.612C163.566 16.224 163.398 16.92 163.398 17.7C163.398 18.48 163.566 19.176 163.902 19.788C164.25 20.4 164.73 20.88 165.342 21.228C165.954 21.564 166.65 21.732 167.43 21.732C168.69 21.732 169.746 21.234 170.598 20.238L172.47 21.966C171.87 22.698 171.126 23.256 170.238 23.64C169.35 24.024 168.36 24.216 167.268 24.216ZM181.027 14.172C182.227 14.172 183.193 14.532 183.925 15.252C184.669 15.972 185.041 17.04 185.041 18.456V24H182.233V18.888C182.233 18.12 182.065 17.55 181.729 17.178C181.393 16.794 180.907 16.602 180.271 16.602C179.563 16.602 178.999 16.824 178.579 17.268C178.159 17.7 177.949 18.348 177.949 19.212V24H175.141V10.644H177.949V15.324C178.321 14.952 178.771 14.67 179.299 14.478C179.827 14.274 180.403 14.172 181.027 14.172ZM191.169 15.594C191.505 15.126 191.955 14.772 192.519 14.532C193.095 14.292 193.755 14.172 194.499 14.172V16.764C194.187 16.74 193.977 16.728 193.869 16.728C193.065 16.728 192.435 16.956 191.979 17.412C191.523 17.856 191.295 18.528 191.295 19.428V24H188.487V14.316H191.169V15.594ZM197.068 14.316H199.876V24H197.068V14.316ZM198.472 12.966C197.956 12.966 197.536 12.816 197.212 12.516C196.888 12.216 196.726 11.844 196.726 11.4C196.726 10.956 196.888 10.584 197.212 10.284C197.536 9.984 197.956 9.834 198.472 9.834C198.988 9.834 199.408 9.978 199.732 10.266C200.056 10.554 200.218 10.914 200.218 11.346C200.218 11.814 200.056 12.204 199.732 12.516C199.408 12.816 198.988 12.966 198.472 12.966ZM206.64 24.144C205.836 24.144 205.05 24.048 204.282 23.856C203.514 23.652 202.902 23.4 202.446 23.1L203.382 21.084C203.814 21.36 204.336 21.588 204.948 21.768C205.56 21.936 206.16 22.02 206.748 22.02C207.936 22.02 208.53 21.726 208.53 21.138C208.53 20.862 208.368 20.664 208.044 20.544C207.72 20.424 207.222 20.322 206.55 20.238C205.758 20.118 205.104 19.98 204.588 19.824C204.072 19.668 203.622 19.392 203.238 18.996C202.866 18.6 202.68 18.036 202.68 17.304C202.68 16.692 202.854 16.152 203.202 15.684C203.562 15.204 204.078 14.832 204.75 14.568C205.434 14.304 206.238 14.172 207.162 14.172C207.846 14.172 208.524 14.25 209.196 14.406C209.88 14.55 210.444 14.754 210.888 15.018L209.952 17.016C209.1 16.536 208.17 16.296 207.162 16.296C206.562 16.296 206.112 16.38 205.812 16.548C205.512 16.716 205.362 16.932 205.362 17.196C205.362 17.496 205.524 17.706 205.848 17.826C206.172 17.946 206.688 18.06 207.396 18.168C208.188 18.3 208.836 18.444 209.34 18.6C209.844 18.744 210.282 19.014 210.654 19.41C211.026 19.806 211.212 20.358 211.212 21.066C211.212 21.666 211.032 22.2 210.672 22.668C210.312 23.136 209.784 23.502 209.088 23.766C208.404 24.018 207.588 24.144 206.64 24.144ZM220.091 23.532C219.815 23.736 219.473 23.892 219.065 24C218.669 24.096 218.249 24.144 217.805 24.144C216.653 24.144 215.759 23.85 215.123 23.262C214.499 22.674 214.187 21.81 214.187 20.67V16.692H212.693V14.532H214.187V12.174H216.995V14.532H219.407V16.692H216.995V20.634C216.995 21.042 217.097 21.36 217.301 21.588C217.517 21.804 217.817 21.912 218.201 21.912C218.645 21.912 219.023 21.792 219.335 21.552L220.091 23.532ZM222.567 14.316H225.375V24H222.567V14.316ZM223.971 12.966C223.455 12.966 223.035 12.816 222.711 12.516C222.387 12.216 222.225 11.844 222.225 11.4C222.225 10.956 222.387 10.584 222.711 10.284C223.035 9.984 223.455 9.834 223.971 9.834C224.487 9.834 224.907 9.978 225.231 10.266C225.555 10.554 225.717 10.914 225.717 11.346C225.717 11.814 225.555 12.204 225.231 12.516C224.907 12.816 224.487 12.966 223.971 12.966ZM232.787 14.172C234.287 14.172 235.439 14.532 236.243 15.252C237.047 15.96 237.449 17.034 237.449 18.474V24H234.821V22.794C234.293 23.694 233.309 24.144 231.869 24.144C231.125 24.144 230.477 24.018 229.925 23.766C229.385 23.514 228.971 23.166 228.683 22.722C228.395 22.278 228.251 21.774 228.251 21.21C228.251 20.31 228.587 19.602 229.259 19.086C229.943 18.57 230.993 18.312 232.409 18.312H234.641C234.641 17.7 234.455 17.232 234.083 16.908C233.711 16.572 233.153 16.404 232.409 16.404C231.893 16.404 231.383 16.488 230.879 16.656C230.387 16.812 229.967 17.028 229.619 17.304L228.611 15.342C229.139 14.97 229.769 14.682 230.501 14.478C231.245 14.274 232.007 14.172 232.787 14.172ZM232.571 22.254C233.051 22.254 233.477 22.146 233.849 21.93C234.221 21.702 234.485 21.372 234.641 20.94V19.95H232.715C231.563 19.95 230.987 20.328 230.987 21.084C230.987 21.444 231.125 21.732 231.401 21.948C231.689 22.152 232.079 22.254 232.571 22.254ZM246.777 14.172C247.977 14.172 248.943 14.532 249.675 15.252C250.419 15.972 250.791 17.04 250.791 18.456V24H247.983V18.888C247.983 18.12 247.815 17.55 247.479 17.178C247.143 16.794 246.657 16.602 246.021 16.602C245.313 16.602 244.749 16.824 244.329 17.268C243.909 17.7 243.699 18.348 243.699 19.212V24H240.891V14.316H243.573V15.45C243.945 15.042 244.407 14.73 244.959 14.514C245.511 14.286 246.117 14.172 246.777 14.172Z" fill="#2E2E2E"/>
<path d="M88.0008 44.108C87.0648 44.108 86.1648 43.958 85.3008 43.658C84.4488 43.358 83.7888 42.962 83.3208 42.47L83.8428 41.444C84.2988 41.9 84.9048 42.272 85.6608 42.56C86.4168 42.836 87.1968 42.974 88.0008 42.974C89.1288 42.974 89.9748 42.77 90.5388 42.362C91.1028 41.942 91.3848 41.402 91.3848 40.742C91.3848 40.238 91.2288 39.836 90.9168 39.536C90.6168 39.236 90.2448 39.008 89.8008 38.852C89.3568 38.684 88.7388 38.504 87.9468 38.312C86.9988 38.072 86.2428 37.844 85.6788 37.628C85.1148 37.4 84.6288 37.058 84.2208 36.602C83.8248 36.146 83.6268 35.528 83.6268 34.748C83.6268 34.112 83.7948 33.536 84.1308 33.02C84.4668 32.492 84.9828 32.072 85.6788 31.76C86.3748 31.448 87.2388 31.292 88.2708 31.292C88.9908 31.292 89.6928 31.394 90.3768 31.598C91.0728 31.79 91.6728 32.06 92.1768 32.408L91.7268 33.47C91.1988 33.122 90.6348 32.864 90.0348 32.696C89.4348 32.516 88.8468 32.426 88.2708 32.426C87.1668 32.426 86.3328 32.642 85.7688 33.074C85.2168 33.494 84.9408 34.04 84.9408 34.712C84.9408 35.216 85.0908 35.624 85.3908 35.936C85.7028 36.236 86.0868 36.47 86.5428 36.638C87.0108 36.794 87.6348 36.968 88.4148 37.16C89.3388 37.388 90.0828 37.616 90.6468 37.844C91.2228 38.06 91.7088 38.396 92.1048 38.852C92.5008 39.296 92.6988 39.902 92.6988 40.67C92.6988 41.306 92.5248 41.888 92.1768 42.416C91.8408 42.932 91.3188 43.346 90.6108 43.658C89.9028 43.958 89.0328 44.108 88.0008 44.108ZM99.0751 44.09C98.1391 44.09 97.2991 43.886 96.5551 43.478C95.8231 43.07 95.2471 42.5 94.8271 41.768C94.4071 41.024 94.1971 40.19 94.1971 39.266C94.1971 38.342 94.4071 37.514 94.8271 36.782C95.2471 36.05 95.8231 35.48 96.5551 35.072C97.2991 34.664 98.1391 34.46 99.0751 34.46C99.8911 34.46 100.617 34.622 101.253 34.946C101.901 35.258 102.411 35.72 102.783 36.332L101.829 36.98C101.517 36.512 101.121 36.164 100.641 35.936C100.161 35.696 99.6391 35.576 99.0751 35.576C98.3911 35.576 97.7731 35.732 97.2211 36.044C96.6811 36.344 96.2551 36.776 95.9431 37.34C95.6431 37.904 95.4931 38.546 95.4931 39.266C95.4931 39.998 95.6431 40.646 95.9431 41.21C96.2551 41.762 96.6811 42.194 97.2211 42.506C97.7731 42.806 98.3911 42.956 99.0751 42.956C99.6391 42.956 100.161 42.842 100.641 42.614C101.121 42.386 101.517 42.038 101.829 41.57L102.783 42.218C102.411 42.83 101.901 43.298 101.253 43.622C100.605 43.934 99.8791 44.09 99.0751 44.09ZM109.797 34.46C110.985 34.46 111.927 34.808 112.623 35.504C113.331 36.188 113.685 37.19 113.685 38.51V44H112.407V38.636C112.407 37.652 112.161 36.902 111.669 36.386C111.177 35.87 110.475 35.612 109.563 35.612C108.543 35.612 107.733 35.918 107.133 36.53C106.545 37.13 106.251 37.964 106.251 39.032V44H104.973V30.644H106.251V36.188C106.599 35.636 107.079 35.21 107.691 34.91C108.303 34.61 109.005 34.46 109.797 34.46ZM120.88 44.09C119.968 44.09 119.146 43.886 118.414 43.478C117.682 43.058 117.106 42.482 116.686 41.75C116.266 41.018 116.056 40.19 116.056 39.266C116.056 38.342 116.266 37.514 116.686 36.782C117.106 36.05 117.682 35.48 118.414 35.072C119.146 34.664 119.968 34.46 120.88 34.46C121.792 34.46 122.614 34.664 123.346 35.072C124.078 35.48 124.648 36.05 125.056 36.782C125.476 37.514 125.686 38.342 125.686 39.266C125.686 40.19 125.476 41.018 125.056 41.75C124.648 42.482 124.078 43.058 123.346 43.478C122.614 43.886 121.792 44.09 120.88 44.09ZM120.88 42.956C121.552 42.956 122.152 42.806 122.68 42.506C123.22 42.194 123.64 41.756 123.94 41.192C124.24 40.628 124.39 39.986 124.39 39.266C124.39 38.546 124.24 37.904 123.94 37.34C123.64 36.776 123.22 36.344 122.68 36.044C122.152 35.732 121.552 35.576 120.88 35.576C120.208 35.576 119.602 35.732 119.062 36.044C118.534 36.344 118.114 36.776 117.802 37.34C117.502 37.904 117.352 38.546 117.352 39.266C117.352 39.986 117.502 40.628 117.802 41.192C118.114 41.756 118.534 42.194 119.062 42.506C119.602 42.806 120.208 42.956 120.88 42.956ZM131.985 44.09C131.073 44.09 130.251 43.886 129.519 43.478C128.787 43.058 128.211 42.482 127.791 41.75C127.371 41.018 127.161 40.19 127.161 39.266C127.161 38.342 127.371 37.514 127.791 36.782C128.211 36.05 128.787 35.48 129.519 35.072C130.251 34.664 131.073 34.46 131.985 34.46C132.897 34.46 133.719 34.664 134.451 35.072C135.183 35.48 135.753 36.05 136.161 36.782C136.581 37.514 136.791 38.342 136.791 39.266C136.791 40.19 136.581 41.018 136.161 41.75C135.753 42.482 135.183 43.058 134.451 43.478C133.719 43.886 132.897 44.09 131.985 44.09ZM131.985 42.956C132.657 42.956 133.257 42.806 133.785 42.506C134.325 42.194 134.745 41.756 135.045 41.192C135.345 40.628 135.495 39.986 135.495 39.266C135.495 38.546 135.345 37.904 135.045 37.34C134.745 36.776 134.325 36.344 133.785 36.044C133.257 35.732 132.657 35.576 131.985 35.576C131.313 35.576 130.707 35.732 130.167 36.044C129.639 36.344 129.219 36.776 128.907 37.34C128.607 37.904 128.457 38.546 128.457 39.266C128.457 39.986 128.607 40.628 128.907 41.192C129.219 41.756 129.639 42.194 130.167 42.506C130.707 42.806 131.313 42.956 131.985 42.956ZM139.22 30.644H140.498V44H139.22V30.644ZM157.693 44.198L155.947 42.398C154.879 43.538 153.475 44.108 151.735 44.108C150.919 44.108 150.187 43.976 149.539 43.712C148.903 43.436 148.405 43.058 148.045 42.578C147.685 42.086 147.505 41.528 147.505 40.904C147.505 40.148 147.745 39.47 148.225 38.87C148.705 38.27 149.521 37.64 150.673 36.98C150.073 36.356 149.659 35.828 149.431 35.396C149.203 34.952 149.089 34.484 149.089 33.992C149.089 33.188 149.377 32.54 149.953 32.048C150.529 31.556 151.303 31.31 152.275 31.31C153.175 31.31 153.889 31.532 154.417 31.976C154.945 32.42 155.209 33.032 155.209 33.812C155.209 34.436 154.999 35 154.579 35.504C154.159 35.996 153.433 36.542 152.401 37.142L155.857 40.706C156.241 40.022 156.523 39.212 156.703 38.276L157.747 38.6C157.519 39.728 157.147 40.694 156.631 41.498L158.431 43.352L157.693 44.198ZM152.275 32.264C151.651 32.264 151.159 32.42 150.799 32.732C150.451 33.044 150.277 33.458 150.277 33.974C150.277 34.346 150.373 34.7 150.565 35.036C150.757 35.372 151.135 35.828 151.699 36.404C152.611 35.876 153.241 35.426 153.589 35.054C153.937 34.682 154.111 34.274 154.111 33.83C154.111 33.35 153.949 32.972 153.625 32.696C153.301 32.408 152.851 32.264 152.275 32.264ZM151.807 43.046C153.199 43.046 154.327 42.572 155.191 41.624L151.393 37.718C150.397 38.282 149.707 38.792 149.323 39.248C148.951 39.704 148.765 40.214 148.765 40.778C148.765 41.462 149.041 42.014 149.593 42.434C150.157 42.842 150.895 43.046 151.807 43.046ZM170.539 44.108C169.291 44.108 168.163 43.832 167.155 43.28C166.159 42.728 165.373 41.966 164.797 40.994C164.233 40.01 163.951 38.912 163.951 37.7C163.951 36.488 164.233 35.396 164.797 34.424C165.373 33.44 166.165 32.672 167.173 32.12C168.181 31.568 169.309 31.292 170.557 31.292C171.493 31.292 172.357 31.448 173.149 31.76C173.941 32.072 174.613 32.528 175.165 33.128L174.319 33.974C173.335 32.978 172.093 32.48 170.593 32.48C169.597 32.48 168.691 32.708 167.875 33.164C167.059 33.62 166.417 34.244 165.949 35.036C165.493 35.828 165.265 36.716 165.265 37.7C165.265 38.684 165.493 39.572 165.949 40.364C166.417 41.156 167.059 41.78 167.875 42.236C168.691 42.692 169.597 42.92 170.593 42.92C172.105 42.92 173.347 42.416 174.319 41.408L175.165 42.254C174.613 42.854 173.935 43.316 173.131 43.64C172.339 43.952 171.475 44.108 170.539 44.108ZM182.378 34.46C183.566 34.46 184.508 34.808 185.204 35.504C185.912 36.188 186.266 37.19 186.266 38.51V44H184.988V38.636C184.988 37.652 184.742 36.902 184.25 36.386C183.758 35.87 183.056 35.612 182.144 35.612C181.124 35.612 180.314 35.918 179.714 36.53C179.126 37.13 178.832 37.964 178.832 39.032V44H177.554V30.644H178.832V36.188C179.18 35.636 179.66 35.21 180.272 34.91C180.884 34.61 181.586 34.46 182.378 34.46ZM198.088 34.532V44H196.864V42.272C196.528 42.848 196.066 43.298 195.478 43.622C194.89 43.934 194.218 44.09 193.462 44.09C192.226 44.09 191.248 43.748 190.528 43.064C189.82 42.368 189.466 41.354 189.466 40.022V34.532H190.744V39.896C190.744 40.892 190.99 41.648 191.482 42.164C191.974 42.68 192.676 42.938 193.588 42.938C194.584 42.938 195.37 42.638 195.946 42.038C196.522 41.426 196.81 40.58 196.81 39.5V34.532H198.088ZM202.711 36.386C203.011 35.75 203.455 35.27 204.043 34.946C204.643 34.622 205.381 34.46 206.257 34.46V35.702L205.951 35.684C204.955 35.684 204.175 35.99 203.611 36.602C203.047 37.214 202.765 38.072 202.765 39.176V44H201.487V34.532H202.711V36.386ZM212.228 44.09C211.292 44.09 210.452 43.886 209.708 43.478C208.976 43.07 208.4 42.5 207.98 41.768C207.56 41.024 207.35 40.19 207.35 39.266C207.35 38.342 207.56 37.514 207.98 36.782C208.4 36.05 208.976 35.48 209.708 35.072C210.452 34.664 211.292 34.46 212.228 34.46C213.044 34.46 213.77 34.622 214.406 34.946C215.054 35.258 215.564 35.72 215.936 36.332L214.982 36.98C214.67 36.512 214.274 36.164 213.794 35.936C213.314 35.696 212.792 35.576 212.228 35.576C211.544 35.576 210.926 35.732 210.374 36.044C209.834 36.344 209.408 36.776 209.096 37.34C208.796 37.904 208.646 38.546 208.646 39.266C208.646 39.998 208.796 40.646 209.096 41.21C209.408 41.762 209.834 42.194 210.374 42.506C210.926 42.806 211.544 42.956 212.228 42.956C212.792 42.956 213.314 42.842 213.794 42.614C214.274 42.386 214.67 42.038 214.982 41.57L215.936 42.218C215.564 42.83 215.054 43.298 214.406 43.622C213.758 43.934 213.032 44.09 212.228 44.09ZM222.95 34.46C224.138 34.46 225.08 34.808 225.776 35.504C226.484 36.188 226.838 37.19 226.838 38.51V44H225.56V38.636C225.56 37.652 225.314 36.902 224.822 36.386C224.33 35.87 223.628 35.612 222.716 35.612C221.696 35.612 220.886 35.918 220.286 36.53C219.698 37.13 219.404 37.964 219.404 39.032V44H218.126V30.644H219.404V36.188C219.752 35.636 220.232 35.21 220.844 34.91C221.456 34.61 222.158 34.46 222.95 34.46Z" fill="#2E2E2E"/>
<circle cx="27.5" cy="27.5" r="27.5" fill="#2536D9"/>
<path fill-rule="evenodd" clip-rule="evenodd" d="M37.8595 37.6463C34.8919 38.1252 34.4323 38.5065 31.2169 37.5973C31.4257 38.7662 30.7962 40.307 29.33 40.7506C28.2594 41.0876 25.8194 40.7214 24.6354 40.2119C21.6902 38.9167 23.7637 36.5973 25.3855 34.2812C28.1485 30.3352 30.2626 26.7658 33.0086 22.9358C35.6795 24.8059 37.3165 25.9522 39.5997 27.5509L39.2093 28.1085L39.9416 28.6213L40.3621 28.0208C40.6206 28.2018 40.9221 28.4129 41.2237 28.6241C41.6011 27.9934 42.3009 27.269 42.459 26.6765C42.2005 26.4956 41.942 26.3146 41.6835 26.1336L42.1641 25.4473L41.4748 24.9647L40.9943 25.651C38.668 24.0221 36.9879 22.8457 34.317 20.9755C34.7375 20.375 35.1279 19.8174 35.5484 19.217C36.3356 19.1929 36.8996 19.396 37.5445 19.2084C42.4679 17.8618 41.021 10.3927 35.9019 10.6435C33.6994 10.7633 31.703 12.881 31.9012 15.2569C31.9585 16.0002 32.3893 16.3018 32.5158 17.2214C32.0823 17.7488 31.701 18.5685 31.2584 18.8338C28.6736 17.024 27.0366 15.8777 24.7965 14.3092L25.2771 13.6229L24.5447 13.1101L24.0642 13.7964C23.7626 13.5852 23.4611 13.3741 23.1595 13.1629C22.6268 13.557 22.2155 14.4195 21.7519 14.9898C22.0966 15.2311 22.4412 15.4724 22.7427 15.6836L22.3523 16.2412L23.0847 16.754L23.4751 16.1964C25.7152 17.7649 27.3522 18.9112 29.937 20.721C27.217 24.6972 24.5559 27.9475 21.883 31.7648C21.0721 32.9229 20.0301 34.6861 19.1449 35.2168C16.8887 36.5135 14.6085 31.9765 14.5278 30.2581C14.4783 29.1368 14.9628 28.2615 15.9041 27.834C16.2136 27.6672 16.8546 27.6686 16.7423 27.4621C14.9045 24.769 15.0325 24.2194 14.5106 21.2972C11.3653 23.3136 10.2541 24.9006 10.0958 27.6022C10.2681 27.7229 10.9392 27.6814 11.4091 28.2022C11.2533 32.184 12.4944 35.5459 15.0868 39.087C15.5397 39.7237 16.3895 40.894 16.7954 41.6896C16.9207 41.9691 17.1843 42.6011 17.1413 42.571C17.1843 42.6011 18.0016 42.5342 18.0447 42.5644C19.5722 42.6751 20.7823 43.3307 22.5082 43.7082C25.5383 44.4237 28.2355 44.3308 30.9916 43.512C31.6366 43.3244 32.4017 42.9653 32.6341 43.0001C33.3142 43.2207 33.3977 44.1101 33.664 43.9131C36.0024 42.8658 37.0274 41.2185 37.8595 37.6463ZM35.0356 16.5568C34.0879 15.8932 33.853 14.5782 34.5137 13.6346C35.1745 12.691 36.4905 12.4619 37.4382 13.1255C38.386 13.7891 38.6208 15.1041 37.9601 16.0477C37.2994 16.9913 35.9833 17.2204 35.0356 16.5568Z" fill="white"/>
</svg>
